<svg width="1183" height="71" viewBox="0 0 1183 71" fill="none" xmlns="http://www.w3.org/2000/svg">
<g filter="url(#filter0_i_420_958)">
<rect width="1182.05" height="71" fill="#002E40"/>
<path d="M68.512 24.6L61.184 47H55.616L50.688 31.832L45.6 47H40.064L32.704 24.6H38.08L43.136 40.344L48.416 24.6H53.216L58.336 40.472L63.552 24.6H68.512ZM86.6368 38.456C86.6368 38.52 86.6048 38.968 86.5408 39.8H73.5168C73.7514 40.8667 74.3061 41.7093 75.1808 42.328C76.0554 42.9467 77.1434 43.256 78.4448 43.256C79.3408 43.256 80.1301 43.128 80.8128 42.872C81.5168 42.5947 82.1674 42.168 82.7648 41.592L85.4208 44.472C83.7994 46.328 81.4314 47.256 78.3168 47.256C76.3754 47.256 74.6581 46.8827 73.1648 46.136C71.6714 45.368 70.5194 44.312 69.7088 42.968C68.8981 41.624 68.4928 40.0987 68.4928 38.392C68.4928 36.7067 68.8874 35.192 69.6768 33.848C70.4874 32.4827 71.5861 31.4267 72.9728 30.68C74.3808 29.912 75.9488 29.528 77.6768 29.528C79.3621 29.528 80.8874 29.8907 82.2528 30.616C83.6181 31.3413 84.6848 32.3867 85.4528 33.752C86.2421 35.096 86.6368 36.664 86.6368 38.456ZM77.7088 33.304C76.5781 33.304 75.6288 33.624 74.8608 34.264C74.0928 34.904 73.6234 35.7787 73.4528 36.888H81.9328C81.7621 35.8 81.2928 34.936 80.5248 34.296C79.7568 33.6347 78.8181 33.304 77.7088 33.304ZM89.9603 23.256H94.9523V47H89.9603V23.256ZM107.905 47.256C106.071 47.256 104.417 46.8827 102.945 46.136C101.495 45.368 100.353 44.312 99.5213 42.968C98.7106 41.624 98.3053 40.0987 98.3053 38.392C98.3053 36.6853 98.7106 35.16 99.5213 33.816C100.353 32.472 101.495 31.4267 102.945 30.68C104.417 29.912 106.071 29.528 107.905 29.528C109.719 29.528 111.297 29.912 112.641 30.68C114.007 31.4267 114.999 32.504 115.617 33.912L111.745 35.992C110.849 34.4133 109.559 33.624 107.873 33.624C106.572 33.624 105.495 34.0507 104.641 34.904C103.788 35.7573 103.361 36.92 103.361 38.392C103.361 39.864 103.788 41.0267 104.641 41.88C105.495 42.7333 106.572 43.16 107.873 43.16C109.58 43.16 110.871 42.3707 111.745 40.792L115.617 42.904C114.999 44.2693 114.007 45.336 112.641 46.104C111.297 46.872 109.719 47.256 107.905 47.256ZM126.465 47.256C124.651 47.256 123.019 46.8827 121.569 46.136C120.139 45.368 119.019 44.312 118.209 42.968C117.398 41.624 116.993 40.0987 116.993 38.392C116.993 36.6853 117.398 35.16 118.209 33.816C119.019 32.472 120.139 31.4267 121.569 30.68C123.019 29.912 124.651 29.528 126.465 29.528C128.278 29.528 129.899 29.912 131.329 30.68C132.758 31.4267 133.878 32.472 134.689 33.816C135.499 35.16 135.905 36.6853 135.905 38.392C135.905 40.0987 135.499 41.624 134.689 42.968C133.878 44.312 132.758 45.368 131.329 46.136C129.899 46.8827 128.278 47.256 126.465 47.256ZM126.465 43.16C127.745 43.16 128.79 42.7333 129.601 41.88C130.433 41.0053 130.849 39.8427 130.849 38.392C130.849 36.9413 130.433 35.7893 129.601 34.936C128.79 34.0613 127.745 33.624 126.465 33.624C125.185 33.624 124.129 34.0613 123.297 34.936C122.465 35.7893 122.049 36.9413 122.049 38.392C122.049 39.8427 122.465 41.0053 123.297 41.88C124.129 42.7333 125.185 43.16 126.465 43.16ZM161.29 29.528C163.444 29.528 165.151 30.168 166.41 31.448C167.69 32.7067 168.33 34.6053 168.33 37.144V47H163.338V37.912C163.338 36.5467 163.05 35.5333 162.474 34.872C161.919 34.1893 161.119 33.848 160.074 33.848C158.9 33.848 157.972 34.232 157.29 35C156.607 35.7467 156.266 36.8667 156.266 38.36V47H151.274V37.912C151.274 35.2027 150.186 33.848 148.01 33.848C146.858 33.848 145.94 34.232 145.258 35C144.575 35.7467 144.234 36.8667 144.234 38.36V47H139.242V29.784H144.01V31.768C144.65 31.0427 145.428 30.488 146.345 30.104C147.284 29.72 148.308 29.528 149.418 29.528C150.634 29.528 151.732 29.7733 152.714 30.264C153.695 30.7333 154.484 31.4267 155.082 32.344C155.786 31.448 156.671 30.7547 157.738 30.264C158.826 29.7733 160.01 29.528 161.29 29.528ZM189.856 38.456C189.856 38.52 189.824 38.968 189.76 39.8H176.736C176.97 40.8667 177.525 41.7093 178.4 42.328C179.274 42.9467 180.362 43.256 181.664 43.256C182.56 43.256 183.349 43.128 184.032 42.872C184.736 42.5947 185.386 42.168 185.984 41.592L188.64 44.472C187.018 46.328 184.65 47.256 181.536 47.256C179.594 47.256 177.877 46.8827 176.384 46.136C174.89 45.368 173.738 44.312 172.928 42.968C172.117 41.624 171.712 40.0987 171.712 38.392C171.712 36.7067 172.106 35.192 172.896 33.848C173.706 32.4827 174.805 31.4267 176.192 30.68C177.6 29.912 179.168 29.528 180.896 29.528C182.581 29.528 184.106 29.8907 185.472 30.616C186.837 31.3413 187.904 32.3867 188.672 33.752C189.461 35.096 189.856 36.664 189.856 38.456ZM180.928 33.304C179.797 33.304 178.848 33.624 178.08 34.264C177.312 34.904 176.842 35.7787 176.672 36.888H185.152C184.981 35.8 184.512 34.936 183.744 34.296C182.976 33.6347 182.037 33.304 180.928 33.304ZM213.346 46.168C212.855 46.5307 212.247 46.808 211.522 47C210.818 47.1707 210.071 47.256 209.282 47.256C207.234 47.256 205.644 46.7333 204.514 45.688C203.404 44.6427 202.85 43.1067 202.85 41.08V34.008H200.194V30.168H202.85V25.976H207.842V30.168H212.13V34.008H207.842V41.016C207.842 41.7413 208.023 42.3067 208.385 42.712C208.77 43.096 209.303 43.288 209.986 43.288C210.775 43.288 211.447 43.0747 212.002 42.648L213.346 46.168ZM223.809 47.256C221.995 47.256 220.363 46.8827 218.913 46.136C217.483 45.368 216.363 44.312 215.553 42.968C214.742 41.624 214.337 40.0987 214.337 38.392C214.337 36.6853 214.742 35.16 215.553 33.816C216.363 32.472 217.483 31.4267 218.913 30.68C220.363 29.912 221.995 29.528 223.809 29.528C225.622 29.528 227.243 29.912 228.673 30.68C230.102 31.4267 231.222 32.472 232.033 33.816C232.843 35.16 233.249 36.6853 233.249 38.392C233.249 40.0987 232.843 41.624 232.033 42.968C231.222 44.312 230.102 45.368 228.673 46.136C227.243 46.8827 225.622 47.256 223.809 47.256ZM223.809 43.16C225.089 43.16 226.134 42.7333 226.945 41.88C227.777 41.0053 228.193 39.8427 228.193 38.392C228.193 36.9413 227.777 35.7893 226.945 34.936C226.134 34.0613 225.089 33.624 223.809 33.624C222.529 33.624 221.473 34.0613 220.641 34.936C219.809 35.7893 219.393 36.9413 219.393 38.392C219.393 39.8427 219.809 41.0053 220.641 41.88C221.473 42.7333 222.529 43.16 223.809 43.16ZM262.448 35.352C263.728 35.7573 264.73 36.44 265.456 37.4C266.181 38.3387 266.544 39.5013 266.544 40.888C266.544 42.8507 265.776 44.3653 264.24 45.432C262.725 46.4773 260.506 47 257.584 47H246V24.6H256.944C259.674 24.6 261.765 25.1227 263.216 26.168C264.688 27.2133 265.424 28.632 265.424 30.424C265.424 31.512 265.157 32.4827 264.624 33.336C264.112 34.1893 263.386 34.8613 262.448 35.352ZM251.152 28.504V33.784H256.304C257.584 33.784 258.554 33.56 259.216 33.112C259.877 32.664 260.208 32.0027 260.208 31.128C260.208 30.2533 259.877 29.6027 259.216 29.176C258.554 28.728 257.584 28.504 256.304 28.504H251.152ZM257.2 43.096C258.565 43.096 259.589 42.872 260.272 42.424C260.976 41.976 261.328 41.2827 261.328 40.344C261.328 38.488 259.952 37.56 257.2 37.56H251.152V43.096H257.2ZM285.605 35.448H290.341V44.536C289.125 45.4533 287.717 46.1573 286.117 46.648C284.517 47.1387 282.906 47.384 281.285 47.384C278.959 47.384 276.869 46.8933 275.013 45.912C273.157 44.9093 271.695 43.5333 270.629 41.784C269.583 40.0133 269.061 38.0187 269.061 35.8C269.061 33.5813 269.583 31.5973 270.629 29.848C271.695 28.0773 273.167 26.7013 275.045 25.72C276.922 24.7173 279.034 24.216 281.381 24.216C283.343 24.216 285.125 24.5467 286.725 25.208C288.325 25.8693 289.669 26.8293 290.757 28.088L287.429 31.16C285.829 29.4747 283.898 28.632 281.637 28.632C280.207 28.632 278.938 28.9307 277.829 29.528C276.719 30.1253 275.855 30.968 275.237 32.056C274.618 33.144 274.309 34.392 274.309 35.8C274.309 37.1867 274.618 38.424 275.237 39.512C275.855 40.6 276.709 41.4533 277.797 42.072C278.906 42.6693 280.165 42.968 281.573 42.968C283.066 42.968 284.41 42.648 285.605 42.008V35.448ZM302.516 47.384C300.745 47.384 299.028 47.1493 297.364 46.68C295.721 46.1893 294.399 45.56 293.396 44.792L295.156 40.888C296.116 41.592 297.257 42.1573 298.58 42.584C299.903 43.0107 301.225 43.224 302.548 43.224C304.02 43.224 305.108 43.0107 305.812 42.584C306.516 42.136 306.868 41.5493 306.868 40.824C306.868 40.2907 306.655 39.8533 306.228 39.512C305.823 39.1493 305.289 38.8613 304.628 38.648C303.988 38.4347 303.113 38.2 302.004 37.944C300.297 37.5387 298.9 37.1333 297.812 36.728C296.724 36.3227 295.785 35.672 294.996 34.776C294.228 33.88 293.844 32.6853 293.844 31.192C293.844 29.8907 294.196 28.7173 294.9 27.672C295.604 26.6053 296.66 25.7627 298.068 25.144C299.497 24.5253 301.236 24.216 303.284 24.216C304.713 24.216 306.111 24.3867 307.476 24.728C308.841 25.0693 310.036 25.56 311.06 26.2L309.46 30.136C307.391 28.9627 305.321 28.376 303.252 28.376C301.801 28.376 300.724 28.6107 300.02 29.08C299.337 29.5493 298.996 30.168 298.996 30.936C298.996 31.704 299.391 32.28 300.18 32.664C300.991 33.0267 302.217 33.3893 303.86 33.752C305.567 34.1573 306.964 34.5627 308.052 34.968C309.14 35.3733 310.068 36.0133 310.836 36.888C311.625 37.7627 312.02 38.9467 312.02 40.44C312.02 41.72 311.657 42.8933 310.932 43.96C310.228 45.0053 309.161 45.8373 307.732 46.456C306.303 47.0747 304.564 47.384 302.516 47.384ZM324.625 24.6H334.801C337.233 24.6 339.377 25.0693 341.233 26.008C343.11 26.9253 344.561 28.2267 345.585 29.912C346.63 31.5973 347.153 33.56 347.153 35.8C347.153 38.04 346.63 40.0027 345.585 41.688C344.561 43.3733 343.11 44.6853 341.233 45.624C339.377 46.5413 337.233 47 334.801 47H324.625V24.6ZM334.545 42.744C336.785 42.744 338.566 42.1253 339.889 40.888C341.233 39.6293 341.905 37.9333 341.905 35.8C341.905 33.6667 341.233 31.9813 339.889 30.744C338.566 29.4853 336.785 28.856 334.545 28.856H329.809V42.744H334.545ZM350.71 29.784H355.702V47H350.71V29.784ZM353.206 27.384C352.289 27.384 351.542 27.1173 350.966 26.584C350.39 26.0507 350.102 25.3893 350.102 24.6C350.102 23.8107 350.39 23.1493 350.966 22.616C351.542 22.0827 352.289 21.816 353.206 21.816C354.124 21.816 354.87 22.072 355.446 22.584C356.022 23.096 356.31 23.736 356.31 24.504C356.31 25.336 356.022 26.0293 355.446 26.584C354.87 27.1173 354.124 27.384 353.206 27.384ZM378.095 29.784V44.12C378.095 47.2773 377.274 49.624 375.631 51.16C373.989 52.696 371.589 53.464 368.431 53.464C366.767 53.464 365.189 53.2613 363.695 52.856C362.202 52.4507 360.965 51.864 359.983 51.096L361.967 47.512C362.693 48.1093 363.61 48.5787 364.719 48.92C365.829 49.2827 366.938 49.464 368.047 49.464C369.775 49.464 371.045 49.0693 371.855 48.28C372.687 47.512 373.103 46.3387 373.103 44.76V44.024C371.802 45.4533 369.989 46.168 367.663 46.168C366.085 46.168 364.634 45.8267 363.311 45.144C362.01 44.44 360.975 43.4587 360.207 42.2C359.439 40.9413 359.055 39.4907 359.055 37.848C359.055 36.2053 359.439 34.7547 360.207 33.496C360.975 32.2373 362.01 31.2667 363.311 30.584C364.634 29.88 366.085 29.528 367.663 29.528C370.159 29.528 372.058 30.3493 373.359 31.992V29.784H378.095ZM368.655 42.072C369.978 42.072 371.055 41.688 371.887 40.92C372.741 40.1307 373.167 39.1067 373.167 37.848C373.167 36.5893 372.741 35.576 371.887 34.808C371.055 34.0187 369.978 33.624 368.655 33.624C367.333 33.624 366.245 34.0187 365.391 34.808C364.538 35.576 364.111 36.5893 364.111 37.848C364.111 39.1067 364.538 40.1307 365.391 40.92C366.245 41.688 367.333 42.072 368.655 42.072ZM382.742 29.784H387.734V47H382.742V29.784ZM385.238 27.384C384.32 27.384 383.574 27.1173 382.998 26.584C382.422 26.0507 382.134 25.3893 382.134 24.6C382.134 23.8107 382.422 23.1493 382.998 22.616C383.574 22.0827 384.32 21.816 385.238 21.816C386.155 21.816 386.902 22.072 387.478 22.584C388.054 23.096 388.342 23.736 388.342 24.504C388.342 25.336 388.054 26.0293 387.478 26.584C386.902 27.1173 386.155 27.384 385.238 27.384ZM403.471 46.168C402.98 46.5307 402.372 46.808 401.647 47C400.943 47.1707 400.196 47.256 399.407 47.256C397.359 47.256 395.769 46.7333 394.639 45.688C393.529 44.6427 392.975 43.1067 392.975 41.08V34.008H390.319V30.168H392.975V25.976H397.967V30.168H402.255V34.008H397.967V41.016C397.967 41.7413 398.148 42.3067 398.51 42.712C398.895 43.096 399.428 43.288 400.111 43.288C400.9 43.288 401.572 43.0747 402.127 42.648L403.471 46.168ZM413.217 29.528C415.883 29.528 417.931 30.168 419.361 31.448C420.79 32.7067 421.505 34.616 421.505 37.176V47H416.833V44.856C415.894 46.456 414.145 47.256 411.585 47.256C410.262 47.256 409.11 47.032 408.129 46.584C407.169 46.136 406.433 45.5173 405.921 44.728C405.409 43.9387 405.153 43.0427 405.153 42.04C405.153 40.44 405.75 39.1813 406.945 38.264C408.161 37.3467 410.027 36.888 412.545 36.888H416.513C416.513 35.8 416.182 34.968 415.521 34.392C414.859 33.7947 413.867 33.496 412.545 33.496C411.627 33.496 410.721 33.6453 409.825 33.944C408.95 34.2213 408.203 34.6053 407.585 35.096L405.793 31.608C406.731 30.9467 407.851 30.4347 409.153 30.072C410.475 29.7093 411.83 29.528 413.217 29.528ZM412.833 43.896C413.686 43.896 414.443 43.704 415.105 43.32C415.766 42.9147 416.235 42.328 416.513 41.56V39.8H413.089C411.041 39.8 410.017 40.472 410.017 41.816C410.017 42.456 410.262 42.968 410.753 43.352C411.265 43.7147 411.958 43.896 412.833 43.896ZM426.023 23.256H431.015V47H426.023V23.256ZM455.91 47.384C453.585 47.384 451.484 46.8827 449.606 45.88C447.75 44.8773 446.289 43.5013 445.222 41.752C444.177 39.9813 443.654 37.9973 443.654 35.8C443.654 33.6027 444.177 31.6293 445.222 29.88C446.289 28.1093 447.75 26.7227 449.606 25.72C451.484 24.7173 453.585 24.216 455.91 24.216C458.236 24.216 460.326 24.7173 462.182 25.72C464.038 26.7227 465.5 28.1093 466.566 29.88C467.633 31.6293 468.166 33.6027 468.166 35.8C468.166 37.9973 467.633 39.9813 466.566 41.752C465.5 43.5013 464.038 44.8773 462.182 45.88C460.326 46.8827 458.236 47.384 455.91 47.384ZM455.91 42.968C457.233 42.968 458.428 42.6693 459.494 42.072C460.561 41.4533 461.393 40.6 461.99 39.512C462.609 38.424 462.918 37.1867 462.918 35.8C462.918 34.4133 462.609 33.176 461.99 32.088C461.393 31 460.561 30.1573 459.494 29.56C458.428 28.9413 457.233 28.632 455.91 28.632C454.588 28.632 453.393 28.9413 452.326 29.56C451.26 30.1573 450.417 31 449.798 32.088C449.201 33.176 448.902 34.4133 448.902 35.8C448.902 37.1867 449.201 38.424 449.798 39.512C450.417 40.6 451.26 41.4533 452.326 42.072C453.393 42.6693 454.588 42.968 455.91 42.968ZM482.174 29.528C484.308 29.528 486.025 30.168 487.326 31.448C488.649 32.728 489.31 34.6267 489.31 37.144V47H484.318V37.912C484.318 36.5467 484.02 35.5333 483.422 34.872C482.825 34.1893 481.961 33.848 480.83 33.848C479.572 33.848 478.569 34.2427 477.822 35.032C477.076 35.8 476.702 36.952 476.702 38.488V47H471.71V29.784H476.478V31.8C477.14 31.0747 477.961 30.52 478.942 30.136C479.924 29.7307 481.001 29.528 482.174 29.528ZM504.011 29.528C505.611 29.528 507.062 29.9013 508.363 30.648C509.686 31.3733 510.721 32.408 511.467 33.752C512.214 35.0747 512.587 36.6213 512.587 38.392C512.587 40.1627 512.214 41.72 511.467 43.064C510.721 44.3867 509.686 45.4213 508.363 46.168C507.062 46.8933 505.611 47.256 504.011 47.256C501.643 47.256 499.841 46.5093 498.603 45.016V47H493.835V23.256H498.827V31.608C500.086 30.2213 501.814 29.528 504.011 29.528ZM503.147 43.16C504.427 43.16 505.473 42.7333 506.283 41.88C507.115 41.0053 507.531 39.8427 507.531 38.392C507.531 36.9413 507.115 35.7893 506.283 34.936C505.473 34.0613 504.427 33.624 503.147 33.624C501.867 33.624 500.811 34.0613 499.979 34.936C499.169 35.7893 498.763 36.9413 498.763 38.392C498.763 39.8427 499.169 41.0053 499.979 41.88C500.811 42.7333 501.867 43.16 503.147 43.16ZM524.121 47.256C522.308 47.256 520.676 46.8827 519.225 46.136C517.796 45.368 516.676 44.312 515.865 42.968C515.054 41.624 514.649 40.0987 514.649 38.392C514.649 36.6853 515.054 35.16 515.865 33.816C516.676 32.472 517.796 31.4267 519.225 30.68C520.676 29.912 522.308 29.528 524.121 29.528C525.934 29.528 527.556 29.912 528.985 30.68C530.414 31.4267 531.534 32.472 532.345 33.816C533.156 35.16 533.561 36.6853 533.561 38.392C533.561 40.0987 533.156 41.624 532.345 42.968C531.534 44.312 530.414 45.368 528.985 46.136C527.556 46.8827 525.934 47.256 524.121 47.256ZM524.121 43.16C525.401 43.16 526.446 42.7333 527.257 41.88C528.089 41.0053 528.505 39.8427 528.505 38.392C528.505 36.9413 528.089 35.7893 527.257 34.936C526.446 34.0613 525.401 33.624 524.121 33.624C522.841 33.624 521.785 34.0613 520.953 34.936C520.121 35.7893 519.705 36.9413 519.705 38.392C519.705 39.8427 520.121 41.0053 520.953 41.88C521.785 42.7333 522.841 43.16 524.121 43.16ZM543.561 29.528C546.227 29.528 548.275 30.168 549.705 31.448C551.134 32.7067 551.849 34.616 551.849 37.176V47H547.177V44.856C546.238 46.456 544.489 47.256 541.929 47.256C540.606 47.256 539.454 47.032 538.473 46.584C537.513 46.136 536.777 45.5173 536.265 44.728C535.753 43.9387 535.497 43.0427 535.497 42.04C535.497 40.44 536.094 39.1813 537.289 38.264C538.505 37.3467 540.371 36.888 542.889 36.888H546.857C546.857 35.8 546.526 34.968 545.865 34.392C545.203 33.7947 544.211 33.496 542.889 33.496C541.971 33.496 541.065 33.6453 540.169 33.944C539.294 34.2213 538.547 34.6053 537.929 35.096L536.137 31.608C537.075 30.9467 538.195 30.4347 539.497 30.072C540.819 29.7093 542.174 29.528 543.561 29.528ZM543.177 43.896C544.03 43.896 544.787 43.704 545.449 43.32C546.11 42.9147 546.579 42.328 546.857 41.56V39.8H543.433C541.385 39.8 540.361 40.472 540.361 41.816C540.361 42.456 540.606 42.968 541.097 43.352C541.609 43.7147 542.302 43.896 543.177 43.896ZM561.135 32.056C561.732 31.224 562.532 30.5947 563.535 30.168C564.559 29.7413 565.732 29.528 567.055 29.528V34.136C566.5 34.0933 566.127 34.072 565.935 34.072C564.505 34.072 563.385 34.4773 562.575 35.288C561.764 36.0773 561.359 37.272 561.359 38.872V47H556.367V29.784H561.135V32.056ZM587.403 23.256V47H582.635V45.016C581.397 46.5093 579.605 47.256 577.259 47.256C575.637 47.256 574.165 46.8933 572.843 46.168C571.541 45.4427 570.517 44.408 569.771 43.064C569.024 41.72 568.651 40.1627 568.651 38.392C568.651 36.6213 569.024 35.064 569.771 33.72C570.517 32.376 571.541 31.3413 572.843 30.616C574.165 29.8907 575.637 29.528 577.259 29.528C579.456 29.528 581.173 30.2213 582.411 31.608V23.256H587.403ZM578.123 43.16C579.381 43.16 580.427 42.7333 581.259 41.88C582.091 41.0053 582.507 39.8427 582.507 38.392C582.507 36.9413 582.091 35.7893 581.259 34.936C580.427 34.0613 579.381 33.624 578.123 33.624C576.843 33.624 575.787 34.0613 574.955 34.936C574.123 35.7893 573.707 36.9413 573.707 38.392C573.707 39.8427 574.123 41.0053 574.955 41.88C575.787 42.7333 576.843 43.16 578.123 43.16ZM592.023 29.784H597.015V47H592.023V29.784ZM594.519 27.384C593.601 27.384 592.855 27.1173 592.279 26.584C591.703 26.0507 591.415 25.3893 591.415 24.6C591.415 23.8107 591.703 23.1493 592.279 22.616C592.855 22.0827 593.601 21.816 594.519 21.816C595.436 21.816 596.183 22.072 596.759 22.584C597.335 23.096 597.623 23.736 597.623 24.504C597.623 25.336 597.335 26.0293 596.759 26.584C596.183 27.1173 595.436 27.384 594.519 27.384ZM612.112 29.528C614.245 29.528 615.962 30.168 617.264 31.448C618.586 32.728 619.248 34.6267 619.248 37.144V47H614.256V37.912C614.256 36.5467 613.957 35.5333 613.36 34.872C612.762 34.1893 611.898 33.848 610.768 33.848C609.509 33.848 608.506 34.2427 607.76 35.032C607.013 35.8 606.64 36.952 606.64 38.488V47H601.648V29.784H606.416V31.8C607.077 31.0747 607.898 30.52 608.88 30.136C609.861 29.7307 610.938 29.528 612.112 29.528ZM641.72 29.784V44.12C641.72 47.2773 640.899 49.624 639.256 51.16C637.614 52.696 635.214 53.464 632.056 53.464C630.392 53.464 628.814 53.2613 627.32 52.856C625.827 52.4507 624.59 51.864 623.608 51.096L625.592 47.512C626.318 48.1093 627.235 48.5787 628.344 48.92C629.454 49.2827 630.563 49.464 631.672 49.464C633.4 49.464 634.67 49.0693 635.48 48.28C636.312 47.512 636.728 46.3387 636.728 44.76V44.024C635.427 45.4533 633.614 46.168 631.288 46.168C629.71 46.168 628.259 45.8267 626.936 45.144C625.635 44.44 624.6 43.4587 623.832 42.2C623.064 40.9413 622.68 39.4907 622.68 37.848C622.68 36.2053 623.064 34.7547 623.832 33.496C624.6 32.2373 625.635 31.2667 626.936 30.584C628.259 29.88 629.71 29.528 631.288 29.528C633.784 29.528 635.683 30.3493 636.984 31.992V29.784H641.72ZM632.28 42.072C633.603 42.072 634.68 41.688 635.512 40.92C636.366 40.1307 636.792 39.1067 636.792 37.848C636.792 36.5893 636.366 35.576 635.512 34.808C634.68 34.0187 633.603 33.624 632.28 33.624C630.958 33.624 629.87 34.0187 629.016 34.808C628.163 35.576 627.736 36.5893 627.736 37.848C627.736 39.1067 628.163 40.1307 629.016 40.92C629.87 41.688 630.958 42.072 632.28 42.072Z" fill="white"/>
<g clip-path="url(#clip0_420_958)">
<path d="M1112.73 28.4056V21.9008H1114.52C1114.71 21.9008 1114.88 21.9041 1115.03 21.9123C1115.18 21.9206 1115.35 21.937 1115.54 21.9617C1115.73 21.9865 1115.9 22.0227 1116.05 22.0688C1116.19 22.1149 1116.34 22.1791 1116.49 22.2631C1116.64 22.3471 1116.76 22.4459 1116.86 22.5595C1116.95 22.6748 1117.03 22.8181 1117.09 22.9877C1117.15 23.159 1117.18 23.3516 1117.18 23.5657C1117.18 24.2096 1116.9 24.6724 1116.32 24.9556C1116.71 25.0594 1117 25.2553 1117.19 25.5435C1117.39 25.8317 1117.48 26.1726 1117.48 26.5695C1117.48 26.8165 1117.43 27.0487 1117.33 27.2644C1117.24 27.4801 1117.09 27.6744 1116.9 27.8474C1116.71 28.0203 1116.46 28.157 1116.15 28.2558C1115.84 28.3562 1115.49 28.4056 1115.1 28.4056H1112.73ZM1113.86 24.5983H1114.83C1114.98 24.5983 1115.12 24.5834 1115.25 24.5554C1115.38 24.5274 1115.5 24.4797 1115.61 24.4155C1115.73 24.3496 1115.81 24.2574 1115.88 24.1388C1115.95 24.0202 1115.98 23.877 1115.98 23.7106C1115.98 23.3895 1115.87 23.1688 1115.64 23.0519C1115.42 22.935 1115.07 22.8757 1114.59 22.8757H1113.86V24.5983H1113.86ZM1113.87 27.4357H1114.89C1115.81 27.4357 1116.26 27.131 1116.26 26.5201C1116.26 26.138 1116.16 25.8762 1115.96 25.7345C1115.75 25.5913 1115.39 25.5205 1114.87 25.5205H1113.87V27.4357V27.4357Z" fill="white"/>
<path d="M1118.6 28.4056V24.9836C1118.6 24.8041 1118.6 24.618 1118.58 24.4253C1118.57 24.231 1118.55 24.0828 1118.54 23.9791L1118.51 23.8226H1119.69V24.4253C1119.87 24.1865 1120.05 24.007 1120.23 23.8868C1120.41 23.7666 1120.62 23.7057 1120.84 23.7057C1120.97 23.7057 1121.13 23.7287 1121.3 23.7732V24.7432C1121.1 24.6773 1120.91 24.6444 1120.74 24.6444C1120.44 24.6444 1120.19 24.7448 1119.99 24.9441C1119.8 25.1433 1119.71 25.4332 1119.71 25.8103V28.4056H1118.6V28.4056Z" fill="white"/>
<path d="M1122.02 22.8741V21.9008H1123.09V22.8741H1122.02ZM1122.03 28.4056V23.821H1123.09V28.404H1122.03V28.4056Z" fill="white"/>
<path d="M1127.08 28.4007H1126.63C1126.45 28.4007 1126.3 28.3957 1126.17 28.3875C1126.04 28.3793 1125.9 28.3595 1125.76 28.3299C1125.63 28.3002 1125.51 28.2607 1125.41 28.2113C1125.32 28.1619 1125.22 28.096 1125.13 28.012C1125.04 27.9281 1124.97 27.8276 1124.92 27.7107C1124.87 27.5938 1124.82 27.4521 1124.79 27.2891C1124.76 27.1261 1124.75 26.9383 1124.75 26.7259V24.5637H1123.79V23.8226H1124.79V22.7506L1125.85 22.4245V23.8226H1127.04V24.5637H1125.85V26.7934C1125.85 26.9367 1125.86 27.052 1125.88 27.1392C1125.9 27.2265 1125.94 27.3006 1125.98 27.3583C1126.03 27.4159 1126.1 27.4587 1126.21 27.4851C1126.31 27.5114 1126.43 27.5295 1126.55 27.5394C1126.68 27.5477 1126.85 27.5526 1127.08 27.5526V28.4007V28.4007Z" fill="white"/>
<path d="M1127.95 22.8741V21.9008H1129.02V22.8741H1127.95ZM1127.95 28.4056V23.821H1129.02V28.404H1127.95V28.4056Z" fill="white"/>
<path d="M1131.99 28.5077C1131.59 28.5077 1131.22 28.4517 1130.88 28.3381C1130.55 28.2245 1130.28 28.0894 1130.08 27.9313L1130.36 27.1359C1130.54 27.2825 1130.78 27.4011 1131.07 27.4949C1131.35 27.5888 1131.63 27.6366 1131.89 27.6366C1132.14 27.6366 1132.32 27.5954 1132.45 27.5114C1132.58 27.4274 1132.64 27.2924 1132.64 27.1047V27.024C1132.64 26.9285 1132.6 26.8478 1132.53 26.7802C1132.45 26.7127 1132.28 26.637 1132.01 26.5497L1131.36 26.3389C1131.2 26.2846 1131.06 26.2352 1130.95 26.189C1130.84 26.1429 1130.73 26.0837 1130.61 26.0128C1130.5 25.942 1130.41 25.863 1130.34 25.779C1130.28 25.6934 1130.23 25.5896 1130.19 25.4661C1130.15 25.3426 1130.13 25.201 1130.13 25.0396C1130.13 24.8074 1130.17 24.6032 1130.26 24.427C1130.35 24.2508 1130.48 24.1125 1130.64 24.012C1130.8 23.9099 1130.98 23.8358 1131.18 23.7864C1131.37 23.737 1131.59 23.7123 1131.82 23.7123C1132.11 23.7123 1132.4 23.7502 1132.7 23.8243C1132.99 23.8984 1133.24 24.0087 1133.46 24.1553L1133.18 24.9144C1133 24.8189 1132.79 24.7382 1132.55 24.674C1132.31 24.6081 1132.1 24.5752 1131.9 24.5752C1131.65 24.5752 1131.47 24.6065 1131.35 24.6691C1131.24 24.7316 1131.18 24.8337 1131.18 24.977C1131.18 25.0725 1131.2 25.1466 1131.24 25.201C1131.27 25.2553 1131.35 25.3097 1131.46 25.3657C1131.57 25.4216 1131.76 25.4925 1132.01 25.5764L1132.6 25.7774C1132.84 25.858 1133.03 25.9453 1133.17 26.0408C1133.32 26.1364 1133.43 26.2714 1133.52 26.4476C1133.61 26.6238 1133.65 26.8445 1133.65 27.1096C1133.65 27.3122 1133.62 27.4949 1133.55 27.6596C1133.48 27.8227 1133.4 27.9577 1133.29 28.0614C1133.18 28.1652 1133.05 28.2525 1132.91 28.32C1132.76 28.3892 1132.61 28.4369 1132.46 28.4649C1132.31 28.4929 1132.15 28.5077 1131.99 28.5077Z" fill="white"/>
<path d="M1134.63 28.4056V21.8959H1135.74V24.4155C1135.85 24.2047 1136.04 24.0334 1136.32 23.9017C1136.6 23.7699 1136.86 23.7057 1137.11 23.7057C1137.32 23.7057 1137.51 23.7304 1137.69 23.7814C1137.86 23.8325 1138.01 23.8984 1138.13 23.9824C1138.24 24.0663 1138.35 24.1684 1138.44 24.2887C1138.53 24.4089 1138.6 24.5307 1138.65 24.6542C1138.7 24.7777 1138.74 24.9144 1138.77 25.0626C1138.8 25.2109 1138.82 25.3475 1138.83 25.4694C1138.84 25.5913 1138.85 25.7197 1138.85 25.8531V28.404H1137.74V25.8185C1137.74 25.3871 1137.67 25.0758 1137.54 24.8864C1137.41 24.6971 1137.21 24.6032 1136.94 24.6032C1136.64 24.6032 1136.36 24.7086 1136.11 24.9177C1135.87 25.1285 1135.74 25.3689 1135.74 25.644V28.4056H1134.63V28.4056Z" fill="white"/>
<path d="M1115.67 37.8565C1114.61 37.8565 1113.79 37.565 1113.21 36.9804C1112.64 36.3958 1112.35 35.6054 1112.35 34.6074C1112.35 34.2352 1112.39 33.8762 1112.49 33.5321C1112.58 33.1879 1112.72 32.87 1112.92 32.5786C1113.11 32.2871 1113.34 32.0335 1113.61 31.8161C1113.88 31.6004 1114.2 31.4308 1114.57 31.3089C1114.95 31.187 1115.35 31.1261 1115.79 31.1261C1116.09 31.1261 1116.37 31.1475 1116.62 31.1903C1116.88 31.2331 1117.09 31.2957 1117.27 31.3764C1117.45 31.4571 1117.58 31.523 1117.66 31.5757C1117.75 31.6284 1117.85 31.6942 1117.95 31.7749L1117.5 32.5703C1117.07 32.2607 1116.5 32.1059 1115.79 32.1059C1115.42 32.1059 1115.08 32.1751 1114.79 32.3167C1114.49 32.4567 1114.25 32.6444 1114.07 32.8799C1113.89 33.1154 1113.76 33.3756 1113.67 33.6622C1113.57 33.9487 1113.53 34.2468 1113.53 34.5596C1113.53 34.9022 1113.57 35.2151 1113.67 35.4983C1113.76 35.7816 1113.89 36.0269 1114.07 36.2328C1114.25 36.4403 1114.48 36.6 1114.76 36.7153C1115.04 36.8306 1115.36 36.8882 1115.73 36.8882C1116.09 36.8882 1116.46 36.8322 1116.84 36.7186V35.1821H1115.32V34.2122H1117.99V37.3625C1117.25 37.6918 1116.48 37.8565 1115.67 37.8565Z" fill="white"/>
<path d="M1121.58 37.8565C1120.81 37.8565 1120.2 37.6359 1119.76 37.1945C1119.31 36.7532 1119.09 36.1768 1119.09 35.4654C1119.09 35.1443 1119.14 34.838 1119.25 34.5498C1119.36 34.2616 1119.51 34.0047 1119.7 33.7807C1119.9 33.5568 1120.14 33.3806 1120.44 33.2488C1120.74 33.1171 1121.07 33.0529 1121.43 33.0529C1121.8 33.0529 1122.11 33.1154 1122.38 33.2406C1122.66 33.3657 1122.87 33.5403 1123.03 33.7659C1123.18 33.9915 1123.3 34.2435 1123.38 34.5234C1123.45 34.8034 1123.49 35.113 1123.49 35.4522C1123.49 35.5379 1123.48 35.6037 1123.47 35.6482H1120.26C1120.28 36.0945 1120.41 36.4255 1120.67 36.6396C1120.92 36.8536 1121.26 36.9607 1121.68 36.9607C1122.17 36.9607 1122.65 36.7976 1123.12 36.4699L1123.42 37.2736C1123.14 37.4728 1122.84 37.6194 1122.55 37.7133C1122.26 37.8088 1121.93 37.8565 1121.58 37.8565ZM1120.27 34.9121H1122.55C1122.49 34.5877 1122.37 34.339 1122.18 34.1661C1122 33.9932 1121.77 33.9075 1121.5 33.9075C1121.18 33.9075 1120.91 33.9965 1120.7 34.176C1120.49 34.3538 1120.34 34.5992 1120.27 34.9121Z" fill="white"/>
<path d="M1126.78 37.8565C1126.38 37.8565 1126.02 37.7923 1125.71 37.6622C1125.4 37.5321 1125.15 37.3575 1124.96 37.1352C1124.76 36.9129 1124.62 36.661 1124.52 36.3761C1124.42 36.0912 1124.37 35.7865 1124.37 35.4621C1124.37 35.1311 1124.42 34.8231 1124.52 34.535C1124.62 34.2484 1124.77 33.9932 1124.96 33.7709C1125.16 33.5485 1125.41 33.374 1125.72 33.2455C1126.03 33.1171 1126.38 33.0529 1126.77 33.0529C1127.17 33.0529 1127.52 33.1154 1127.83 33.2422C1128.14 33.369 1128.39 33.5436 1128.58 33.7643C1128.76 33.9866 1128.9 34.2402 1129 34.5284C1129.09 34.8166 1129.14 35.1295 1129.14 35.4687C1129.14 35.7882 1129.09 36.0879 1128.99 36.3695C1128.89 36.6511 1128.75 36.903 1128.56 37.127C1128.37 37.351 1128.12 37.5272 1127.82 37.6589C1127.51 37.7907 1127.16 37.8565 1126.78 37.8565ZM1126.76 36.9623C1126.97 36.9623 1127.16 36.9212 1127.33 36.8388C1127.49 36.7565 1127.62 36.6445 1127.71 36.4996C1127.81 36.3547 1127.87 36.1949 1127.92 36.0187C1127.97 35.8425 1127.99 35.6531 1127.99 35.4473C1127.99 35.0092 1127.89 34.6502 1127.68 34.3703C1127.47 34.0903 1127.17 33.9504 1126.76 33.9504C1126.48 33.9504 1126.25 34.0195 1126.06 34.1578C1125.87 34.2962 1125.73 34.4757 1125.65 34.6963C1125.56 34.917 1125.52 35.1673 1125.52 35.4473C1125.52 35.7239 1125.56 35.9726 1125.64 36.1933C1125.72 36.4139 1125.85 36.5967 1126.05 36.7433C1126.24 36.8899 1126.47 36.9623 1126.76 36.9623Z" fill="white"/>
<path d="M1130.2 37.7544V31.2447H1131.3V37.7544H1130.2Z" fill="white"/>
<path d="M1134.75 37.8565C1134.35 37.8565 1133.99 37.7923 1133.68 37.6622C1133.37 37.5321 1133.12 37.3575 1132.93 37.1352C1132.73 36.9129 1132.59 36.661 1132.49 36.3761C1132.39 36.0912 1132.34 35.7865 1132.34 35.4621C1132.34 35.1311 1132.39 34.8231 1132.49 34.535C1132.59 34.2484 1132.74 33.9932 1132.93 33.7709C1133.13 33.5485 1133.38 33.374 1133.69 33.2455C1134 33.1171 1134.35 33.0529 1134.74 33.0529C1135.14 33.0529 1135.49 33.1154 1135.8 33.2422C1136.11 33.369 1136.36 33.5436 1136.55 33.7643C1136.73 33.9866 1136.87 34.2402 1136.97 34.5284C1137.06 34.8166 1137.11 35.1295 1137.11 35.4687C1137.11 35.7882 1137.06 36.0879 1136.96 36.3695C1136.86 36.6511 1136.72 36.903 1136.53 37.127C1136.34 37.351 1136.09 37.5272 1135.78 37.6589C1135.48 37.7907 1135.13 37.8565 1134.75 37.8565ZM1134.72 36.9623C1134.94 36.9623 1135.13 36.9212 1135.29 36.8388C1135.46 36.7565 1135.59 36.6445 1135.68 36.4996C1135.77 36.3547 1135.84 36.1949 1135.89 36.0187C1135.94 35.8425 1135.96 35.6531 1135.96 35.4473C1135.96 35.0092 1135.86 34.6502 1135.65 34.3703C1135.44 34.0903 1135.14 33.9504 1134.73 33.9504C1134.45 33.9504 1134.22 34.0195 1134.03 34.1578C1133.84 34.2962 1133.7 34.4757 1133.62 34.6963C1133.53 34.917 1133.49 35.1673 1133.49 35.4473C1133.49 35.7239 1133.53 35.9726 1133.61 36.1933C1133.69 36.4139 1133.82 36.5967 1134.01 36.7433C1134.2 36.8899 1134.44 36.9623 1134.72 36.9623Z" fill="white"/>
<path d="M1140.06 39.6219C1139.46 39.6219 1138.88 39.5181 1138.32 39.309L1138.51 38.3522C1138.96 38.5844 1139.45 38.7013 1139.98 38.7013C1140.41 38.7013 1140.74 38.6091 1140.98 38.4263C1141.22 38.2435 1141.34 37.9669 1141.34 37.598V37.2093C1141.08 37.5733 1140.7 37.7544 1140.2 37.7544C1139.52 37.7544 1138.98 37.5469 1138.57 37.1303C1138.17 36.7153 1137.96 36.1554 1137.96 35.4522C1137.96 35.1311 1138.01 34.8281 1138.09 34.5481C1138.18 34.2665 1138.31 34.0129 1138.48 33.7873C1138.64 33.5617 1138.87 33.3822 1139.15 33.2505C1139.43 33.1187 1139.75 33.0545 1140.11 33.0545C1140.39 33.0545 1140.64 33.1105 1140.85 33.2241C1141.07 33.3378 1141.23 33.4827 1141.35 33.6622V33.1714H1142.52C1142.46 33.6243 1142.43 34.1364 1142.43 34.7079V37.0974C1142.43 38.7804 1141.64 39.6219 1140.06 39.6219ZM1140.27 36.9179C1140.45 36.9179 1140.6 36.8882 1140.74 36.8306C1140.87 36.7729 1140.98 36.6972 1141.06 36.6033C1141.15 36.5095 1141.21 36.3975 1141.26 36.2657C1141.32 36.134 1141.35 36.0023 1141.37 35.8705C1141.39 35.7388 1141.4 35.5971 1141.4 35.4489C1141.4 35.0027 1141.31 34.6404 1141.12 34.3653C1140.94 34.0903 1140.66 33.952 1140.28 33.952C1140.03 33.952 1139.81 34.0245 1139.63 34.1694C1139.45 34.3143 1139.32 34.4971 1139.24 34.7161C1139.16 34.9368 1139.12 35.1822 1139.12 35.4539C1139.12 35.9117 1139.22 36.2707 1139.4 36.5309C1139.59 36.7911 1139.88 36.9179 1140.27 36.9179Z" fill="white"/>
<path d="M1143.65 32.2229V31.2496H1144.72V32.2229H1143.65ZM1143.66 37.7544V33.1698H1144.72V37.7528H1143.66V37.7544Z" fill="white"/>
<path d="M1148.16 37.8565C1147.79 37.8565 1147.45 37.7907 1147.14 37.6606C1146.84 37.5288 1146.58 37.3526 1146.39 37.1287C1146.19 36.9047 1146.04 36.6494 1145.93 36.3629C1145.83 36.0764 1145.77 35.7733 1145.77 35.4588C1145.77 35.0059 1145.86 34.5992 1146.05 34.2369C1146.24 33.8746 1146.51 33.5881 1146.88 33.374C1147.24 33.1615 1147.66 33.0545 1148.15 33.0545C1148.87 33.0545 1149.42 33.2604 1149.81 33.6704L1149.41 34.3851C1149.08 34.0936 1148.7 33.9471 1148.27 33.9471C1147.83 33.9471 1147.5 34.0837 1147.27 34.3588C1147.03 34.6321 1146.92 35.001 1146.92 35.4621C1146.92 35.9117 1147.04 36.274 1147.29 36.5506C1147.53 36.8256 1147.87 36.964 1148.3 36.964C1148.36 36.964 1148.42 36.9607 1148.48 36.9557C1148.54 36.9492 1148.59 36.9426 1148.64 36.9327C1148.69 36.9245 1148.74 36.9113 1148.79 36.8948C1148.84 36.8783 1148.88 36.8635 1148.92 36.8503C1148.96 36.8372 1149 36.8191 1149.04 36.7944C1149.09 36.7697 1149.12 36.7515 1149.15 36.7384C1149.17 36.7252 1149.2 36.7054 1149.24 36.6774C1149.28 36.6511 1149.31 36.633 1149.32 36.6231C1149.33 36.6149 1149.36 36.5967 1149.39 36.572C1149.42 36.5473 1149.44 36.5325 1149.45 36.5292L1149.78 37.3427C1149.52 37.5222 1149.27 37.6523 1149.01 37.733C1148.76 37.8154 1148.47 37.8565 1148.16 37.8565Z" fill="white"/>
<path d="M1152.65 37.8565C1152.28 37.8565 1151.95 37.789 1151.66 37.6556C1151.36 37.5222 1151.12 37.3427 1150.95 37.1188C1150.77 36.8948 1150.63 36.6461 1150.54 36.3728C1150.45 36.0994 1150.4 35.8112 1150.4 35.5099C1150.4 35.1904 1150.45 34.8874 1150.55 34.6008C1150.64 34.3143 1150.78 34.0525 1150.96 33.8186C1151.15 33.5848 1151.39 33.3987 1151.69 33.2604C1151.99 33.122 1152.33 33.0529 1152.71 33.0529C1153.26 33.0529 1153.69 33.2538 1153.98 33.6556V33.1681H1155.07V37.7511H1153.96V37.1254C1153.62 37.6144 1153.19 37.8565 1152.65 37.8565ZM1152.79 36.9623C1153.22 36.9623 1153.53 36.8256 1153.73 36.5539C1153.92 36.2822 1154.02 35.9166 1154.02 35.4621C1154.02 34.9944 1153.91 34.6255 1153.71 34.3555C1153.5 34.0854 1153.19 33.952 1152.77 33.952C1152.36 33.952 1152.04 34.087 1151.83 34.3588C1151.61 34.6305 1151.5 34.9944 1151.5 35.4539C1151.5 35.9117 1151.61 36.2789 1151.83 36.5523C1152.05 36.8256 1152.37 36.9623 1152.79 36.9623Z" fill="white"/>
<path d="M1156.3 37.7544V31.2447H1157.4V37.7544H1156.3Z" fill="white"/>
<path d="M1114.66 47.2053C1114.21 47.2053 1113.78 47.1395 1113.37 47.0094C1112.96 46.8776 1112.63 46.6965 1112.39 46.4643L1112.88 45.6508C1113.09 45.8138 1113.36 45.9538 1113.7 46.0658C1114.04 46.1794 1114.33 46.2354 1114.59 46.2354C1114.99 46.2354 1115.29 46.1613 1115.48 46.0114C1115.67 45.8632 1115.76 45.6359 1115.76 45.3329C1115.76 45.2144 1115.76 45.1172 1115.74 45.0447C1115.72 44.9723 1115.68 44.8965 1115.62 44.8175C1115.56 44.7384 1115.46 44.666 1115.34 44.5985C1115.22 44.5309 1115.05 44.4601 1114.84 44.386C1114.75 44.3564 1114.6 44.307 1114.39 44.2378C1114.18 44.1687 1114.02 44.1176 1113.93 44.0814C1113.39 43.8788 1113 43.64 1112.76 43.365C1112.52 43.09 1112.4 42.7162 1112.4 42.2452C1112.4 41.8632 1112.5 41.5371 1112.7 41.267C1112.9 40.9953 1113.17 40.796 1113.5 40.6676C1113.84 40.5391 1114.22 40.4749 1114.64 40.4749C1115.22 40.4749 1115.67 40.5309 1115.99 40.6445C1116.32 40.7582 1116.62 40.9508 1116.9 41.2258L1116.32 41.9768C1115.96 41.6277 1115.45 41.4548 1114.8 41.4548C1114.45 41.4548 1114.16 41.5157 1113.94 41.6375C1113.72 41.7594 1113.61 41.9455 1113.61 42.1958C1113.61 42.3177 1113.62 42.4181 1113.64 42.4972C1113.66 42.5762 1113.7 42.6536 1113.77 42.7294C1113.84 42.8051 1113.93 42.8759 1114.06 42.9402C1114.18 43.0044 1114.35 43.0735 1114.56 43.1476C1114.63 43.174 1114.79 43.225 1115.03 43.3024C1115.26 43.3782 1115.44 43.4391 1115.55 43.4836C1116.08 43.6944 1116.45 43.9381 1116.66 44.2115C1116.87 44.4848 1116.97 44.8669 1116.97 45.356C1116.97 45.6804 1116.91 45.9653 1116.78 46.2107C1116.65 46.456 1116.48 46.6487 1116.26 46.7887C1116.04 46.9287 1115.79 47.0324 1115.53 47.1016C1115.26 47.1707 1114.97 47.2053 1114.66 47.2053Z" fill="white"/>
<path d="M1119.72 47.2053C1119.17 47.2053 1118.74 47.0472 1118.43 46.7294C1118.12 46.4116 1117.97 45.9768 1117.97 45.4235V42.5202H1119.06V45.407C1119.06 45.71 1119.14 45.9373 1119.3 46.0888C1119.46 46.2386 1119.67 46.3144 1119.95 46.3144C1120.28 46.3144 1120.52 46.2321 1120.68 46.0657C1120.84 45.9011 1120.92 45.6343 1120.92 45.2687V42.5218H1122.03V45.8731L1122.08 47.1065H1120.94L1120.92 46.428C1120.91 46.4939 1120.87 46.5664 1120.82 46.6454C1120.77 46.7245 1120.7 46.8084 1120.61 46.8974C1120.52 46.9863 1120.39 47.0604 1120.24 47.1213C1120.08 47.1757 1119.91 47.2053 1119.72 47.2053Z" fill="white"/>
<path d="M1123.34 47.1016V43.6796C1123.34 43.5001 1123.34 43.314 1123.32 43.1213C1123.31 42.927 1123.29 42.7788 1123.28 42.675L1123.25 42.5186H1124.43V43.1213C1124.61 42.8825 1124.79 42.703 1124.97 42.5828C1125.15 42.4626 1125.36 42.4017 1125.58 42.4017C1125.71 42.4017 1125.87 42.4247 1126.04 42.4692V43.4392C1125.84 43.3733 1125.65 43.3403 1125.48 43.3403C1125.18 43.3403 1124.93 43.4408 1124.73 43.6401C1124.54 43.8393 1124.44 44.1292 1124.44 44.5063V47.1016H1123.34V47.1016Z" fill="white"/>
<path d="M1128.43 47.1016L1126.5 42.5186H1127.73C1128.52 44.6479 1128.94 45.7627 1128.98 45.8648C1129.21 45.2242 1129.61 44.1094 1130.17 42.5186H1131.37L1129.43 47.1016H1128.43V47.1016Z" fill="white"/>
<path d="M1134.16 47.2054C1133.4 47.2054 1132.79 46.9847 1132.34 46.5434C1131.9 46.102 1131.68 45.5256 1131.68 44.8142C1131.68 44.4931 1131.73 44.1868 1131.84 43.8986C1131.94 43.6104 1132.1 43.3535 1132.29 43.1296C1132.48 42.9056 1132.73 42.7294 1133.03 42.5976C1133.33 42.4659 1133.66 42.4017 1134.02 42.4017C1134.38 42.4017 1134.7 42.4643 1134.97 42.5894C1135.24 42.7146 1135.46 42.8891 1135.61 43.1147C1135.77 43.3403 1135.89 43.5923 1135.96 43.8723C1136.04 44.1522 1136.08 44.4618 1136.08 44.801C1136.08 44.8867 1136.07 44.9526 1136.05 44.997H1132.85C1132.86 45.4433 1133 45.7743 1133.25 45.9884C1133.51 46.2025 1133.84 46.3095 1134.27 46.3095C1134.76 46.3095 1135.24 46.1465 1135.71 45.8188L1136.01 46.6224C1135.72 46.8217 1135.43 46.9682 1135.14 47.0621C1134.84 47.1576 1134.52 47.2054 1134.16 47.2054ZM1132.86 44.2609H1135.13C1135.08 43.9365 1134.96 43.6878 1134.77 43.5149C1134.58 43.342 1134.36 43.2564 1134.08 43.2564C1133.77 43.2564 1133.5 43.3453 1133.29 43.5248C1133.07 43.7026 1132.93 43.948 1132.86 44.2609Z" fill="white"/>
<path d="M1137.45 49.0909L1136.99 48.34C1137.4 48.1786 1137.71 48.0123 1137.92 47.841C1138.13 47.6698 1138.27 47.4639 1138.34 47.2218L1138.4 46.9979L1136.46 42.517H1137.61L1138.93 45.8056L1140.07 42.517H1141.2L1139.35 47.3503C1139.22 47.6665 1139.05 47.9448 1138.84 48.1885C1138.63 48.4306 1138.42 48.6216 1138.19 48.7583C1137.96 48.8966 1137.72 49.007 1137.45 49.0909Z" fill="white"/>
<path d="M1072.3 34.0261C1073.04 25.611 1080.12 18.9909 1088.7 18.9909C1097.29 18.9909 1104.36 25.611 1105.11 34.0261H1106.7C1105.95 24.7333 1098.17 17.4018 1088.7 17.4018C1079.24 17.4018 1071.45 24.7333 1070.7 34.0261H1072.3Z" fill="white"/>
<path d="M1105.11 36.9739C1104.36 45.389 1097.29 52.009 1088.7 52.009C1080.11 52.009 1073.04 45.389 1072.29 36.9739H1070.7C1071.45 46.2667 1079.24 53.5982 1088.7 53.5982C1098.16 53.5982 1105.95 46.2667 1106.7 36.9739H1105.11Z" fill="white"/>
<path d="M1082.48 36.1933C1083.13 35.9808 1083.35 35.5444 1083.35 34.4806C1083.35 33.1253 1083 32.656 1081.94 32.5654C1081.65 32.5424 1081.65 32.5424 1080.11 32.5325H1075.46V40.0006H1080.12C1082.3 39.9891 1082.41 39.9776 1082.77 39.8327C1083.35 39.6087 1083.59 39.0603 1083.59 37.9965C1083.59 36.7976 1083.33 36.3612 1082.48 36.1933ZM1077.33 34.2896H1080.11C1081.01 34.3011 1081.04 34.3011 1081.14 34.3225C1081.35 34.3785 1081.43 34.5465 1081.43 34.8594C1081.43 35.1278 1081.37 35.3188 1081.22 35.3863C1081.09 35.4539 1080.81 35.4753 1080.11 35.4753H1077.33V34.2896ZM1081.45 38.1184C1081.3 38.1974 1081.3 38.1974 1080.12 38.2073H1077.33V36.964H1080.12C1081.27 36.9755 1081.27 36.9755 1081.37 36.9969C1081.59 37.0529 1081.68 37.2093 1081.68 37.5568C1081.68 37.873 1081.61 38.041 1081.45 38.1184Z" fill="white"/>
<path d="M1088.53 37.2571H1091.12V37.4695C1091.12 38.2978 1091.06 38.3209 1088.76 38.3209L1087.6 38.2978C1087.05 38.2748 1086.88 38.2419 1086.71 38.0854C1086.5 37.8845 1086.44 37.5024 1086.44 36.2377C1086.44 34.3011 1086.45 34.2896 1088.78 34.2896C1090.26 34.2896 1090.71 34.334 1090.91 34.4905C1091.03 34.5909 1091.05 34.6815 1091.06 35.1179H1093.03C1093.02 34.0211 1092.95 33.5617 1092.67 33.1912C1092.25 32.5983 1091.35 32.4188 1088.94 32.4188C1084.74 32.4188 1084.46 32.6543 1084.46 36.1471C1084.46 38.5992 1084.57 39.1476 1085.14 39.5856C1085.69 40.0105 1086.38 40.1126 1088.6 40.1126C1090.36 40.1126 1091.04 40.0681 1091.7 39.9117C1092.48 39.7322 1092.9 39.2168 1092.97 38.344C1093 37.985 1093.04 36.7087 1093.04 35.9693V35.7684H1088.52V37.2571H1088.53Z" fill="white"/>
<path d="M1101.33 35.7783C1100.92 35.4753 1100.5 35.4193 1098.36 35.3419C1096.99 35.2974 1096.46 35.2628 1096.28 35.2068C1096.08 35.1508 1095.99 35.0059 1095.99 34.726C1095.99 34.1776 1096.13 34.1331 1097.8 34.1331C1099.2 34.1331 1099.44 34.1562 1099.61 34.2682C1099.75 34.3686 1099.78 34.4691 1099.8 34.8841H1101.71C1101.72 34.7391 1101.72 34.5811 1101.72 34.5366C1101.72 33.6523 1101.56 33.1813 1101.17 32.8799C1100.71 32.5209 1100.03 32.4205 1098.15 32.4205C1096.6 32.4205 1095.7 32.4649 1095.32 32.5555C1094.43 32.7795 1094.08 33.4184 1094.08 34.8396C1094.08 36.4864 1094.52 36.9557 1096.13 37.0117L1096.65 37.0348L1097.7 37.0908L1099.26 37.1583C1099.89 37.1698 1100.03 37.2818 1100.03 37.7297C1100.03 38.3901 1100.03 38.3901 1097.92 38.3901C1096.53 38.3901 1096.31 38.367 1096.13 38.2336C1095.97 38.1216 1095.93 37.9767 1095.93 37.5288H1094.02V37.8878C1094.02 38.9187 1094.17 39.3551 1094.61 39.6795C1095.07 40.0155 1095.86 40.1159 1097.87 40.1159C1099.8 40.1159 1100.62 40.0599 1101.01 39.8919C1101.68 39.6005 1101.95 38.9632 1101.95 37.6638C1101.95 36.6181 1101.78 36.1142 1101.33 35.7783Z" fill="white"/>
<path d="M1094.41 25.8663C1094.33 25.2685 1093.97 24.7135 1093.44 24.4154C1093.13 24.2359 1092.76 24.1651 1092.39 24.1651C1092.37 24.1651 1092.35 24.1684 1092.33 24.1684C1092.26 24.1701 1092.19 24.1734 1092.12 24.18C1092.08 24.1832 1092.04 24.1882 1092 24.1931C1091.94 24.2014 1091.87 24.2112 1091.81 24.2228C1091.76 24.231 1091.72 24.2392 1091.67 24.2491C1091.61 24.2606 1091.56 24.2755 1091.5 24.2886C1091.44 24.3035 1091.39 24.3183 1091.33 24.3348C1091.29 24.3479 1091.25 24.3611 1091.21 24.3759C1091.18 24.3858 1091.15 24.3924 1091.12 24.4023C1090.89 24.483 1090.66 24.5521 1090.44 24.6098C1090.41 24.6164 1090.38 24.6246 1090.36 24.6295C1090.26 24.6526 1090.16 24.674 1090.06 24.6938C1090.03 24.7003 1089.99 24.7069 1089.96 24.7135C1089.86 24.7316 1089.77 24.7464 1089.67 24.7596C1089.58 24.7728 1089.49 24.786 1089.4 24.7959C1089.4 24.7959 1089.2 24.0532 1089.17 23.9675C1089.18 23.9659 1090.04 24.3644 1090.06 24.3693C1090.06 24.3693 1090.06 23.8259 1090.06 23.5344C1090.06 23.2429 1090.06 22.6995 1090.06 22.6995C1090.04 22.7061 1089.18 23.1046 1089.18 23.1013C1089.2 22.991 1089.54 22.0819 1089.56 22.0523H1088.71H1087.86C1087.87 22.0819 1088.21 22.991 1088.24 23.1013C1088.23 23.103 1087.37 22.7044 1087.35 22.6995C1087.35 22.6995 1087.35 23.2429 1087.35 23.5344C1087.35 23.8259 1087.35 24.3693 1087.35 24.3693C1087.37 24.3627 1088.23 23.9642 1088.24 23.9675C1088.22 24.0532 1088.02 24.7959 1088.02 24.7959C1087.93 24.786 1087.83 24.7728 1087.74 24.7596C1087.65 24.7464 1087.55 24.73 1087.45 24.7135C1087.42 24.7069 1087.38 24.7003 1087.35 24.6938C1087.25 24.674 1087.15 24.6542 1087.05 24.6295C1087.03 24.6229 1087 24.6164 1086.98 24.6098C1086.75 24.5521 1086.52 24.4846 1086.29 24.4023C1086.26 24.3924 1086.23 24.3858 1086.21 24.3759C1086.16 24.3611 1086.12 24.3479 1086.08 24.3348C1086.02 24.3183 1085.97 24.3035 1085.91 24.2886C1085.85 24.2738 1085.8 24.2606 1085.74 24.2491C1085.7 24.2392 1085.65 24.231 1085.6 24.2228C1085.54 24.2112 1085.47 24.2014 1085.41 24.1931C1085.37 24.1882 1085.33 24.1849 1085.29 24.18C1085.22 24.1734 1085.15 24.1701 1085.09 24.1684C1085.06 24.1684 1085.04 24.1651 1085.02 24.1651C1084.65 24.1651 1084.28 24.2359 1083.97 24.4154C1083.44 24.7135 1083.08 25.2685 1083 25.8663C1082.94 26.3158 1083.08 26.7374 1083.18 27.1689C1083.24 27.4109 1083.3 27.653 1083.36 27.8951C1083.5 28.4665 1083.63 29.0396 1083.77 29.6111C1083.78 29.6193 1083.8 29.751 1083.81 29.751C1083.88 30.0738 1083.96 30.3949 1084.03 30.7144H1084.03C1084.04 30.7226 1084.04 30.7276 1084.05 30.7276C1084.06 30.7276 1084.06 30.7243 1084.07 30.7193H1084.07C1084.58 29.9816 1085.62 29.7988 1087.67 29.7593H1087.79H1088.06C1088.08 29.5287 1088.06 29.3278 1088.06 29.3179C1088.04 28.8996 1087.7 28.5653 1087.28 28.5653C1087.26 28.5653 1087.17 28.5703 1087.13 28.5818C1087 28.6032 1086.85 28.651 1086.69 28.7514C1086.67 28.0664 1087.11 27.9033 1087.32 27.8638C1087.54 27.8325 1087.77 27.872 1087.93 27.9741C1088.13 28.1108 1088.34 28.3331 1088.43 28.7613V28.7136C1088.43 27.8556 1088.09 27.7815 1088.1 27.1343C1088.11 26.4904 1088.7 26.0869 1088.71 26.082C1088.71 26.0853 1089.31 26.4887 1089.32 27.1343C1089.33 27.7815 1088.99 27.8556 1088.99 28.7136V28.7613C1089.08 28.3331 1089.28 28.1092 1089.49 27.9741C1089.65 27.872 1089.87 27.8342 1090.1 27.8638C1090.31 27.9033 1090.74 28.068 1090.73 28.7514C1090.57 28.6526 1090.42 28.6032 1090.29 28.5818C1090.25 28.5703 1090.16 28.5653 1090.14 28.5653C1089.72 28.5653 1089.37 28.8996 1089.36 29.3179C1089.36 29.3262 1089.34 29.5287 1089.36 29.7593H1089.62H1089.74C1091.8 29.7988 1092.84 29.9816 1093.35 30.7193H1093.35C1093.36 30.7243 1093.36 30.7276 1093.37 30.7276C1093.38 30.7276 1093.38 30.721 1093.38 30.7144H1093.39C1093.46 30.3949 1093.53 30.0738 1093.61 29.751C1093.61 29.751 1093.64 29.6193 1093.64 29.6111C1093.78 29.0396 1093.92 28.4682 1094.06 27.8951C1094.12 27.653 1094.18 27.4109 1094.24 27.1689C1094.33 26.7374 1094.47 26.3158 1094.41 25.8663ZM1085.42 28.8272C1085.11 28.8272 1084.86 28.5752 1084.86 28.2656C1084.86 27.956 1085.11 27.7041 1085.42 27.7041C1085.73 27.7041 1085.98 27.9544 1085.98 28.2656C1085.98 28.5752 1085.73 28.8272 1085.42 28.8272ZM1087.48 26.2516L1086.35 26.2582C1085.63 26.2566 1084.76 26.4591 1084.37 27.3171C1084.01 26.9729 1083.87 26.5266 1083.84 26.4064C1083.81 26.25 1083.79 26.1067 1083.81 25.9782C1083.86 25.6209 1084.07 25.2965 1084.36 25.1318C1084.53 25.0363 1084.75 24.9869 1085.01 24.9869C1085.32 24.9869 1085.66 25.0528 1086.01 25.1779C1086.32 25.2866 1086.62 25.3739 1086.92 25.4447L1086.92 25.4463C1086.92 25.4463 1087.14 25.504 1087.48 25.5418V26.2516V26.2516ZM1091.99 28.8272C1091.68 28.8272 1091.43 28.5752 1091.43 28.2656C1091.43 27.956 1091.68 27.7041 1091.99 27.7041C1092.3 27.7041 1092.55 27.9544 1092.55 28.2656C1092.55 28.5752 1092.3 28.8272 1091.99 28.8272ZM1093.57 26.4064C1093.54 26.5266 1093.39 26.9729 1093.04 27.3171C1092.65 26.4591 1091.78 26.2566 1091.06 26.2582L1089.92 26.2516V25.5402C1090.27 25.5023 1090.48 25.4447 1090.48 25.4447L1090.49 25.443C1090.79 25.3722 1091.09 25.2849 1091.4 25.1763C1091.75 25.0511 1092.09 24.9852 1092.39 24.9852C1092.66 24.9852 1092.87 25.0346 1093.04 25.1302C1093.34 25.2965 1093.55 25.6209 1093.6 25.9766C1093.62 26.1067 1093.6 26.25 1093.57 26.4064Z" fill="white"/>
<path d="M1087.35 43.4786C1088.69 43.976 1089.98 44.6166 1091.19 45.3856H1099.3C1099.86 44.7944 1100.37 44.1538 1100.83 43.4786H1087.35Z" fill="white"/>
<path d="M1095.01 48.5063C1096.05 48.0106 1097.03 47.3898 1097.93 46.6586H1092.98C1093.69 47.2284 1094.37 47.8493 1095.01 48.5063Z" fill="white"/>
<path d="M1080.25 45.3856C1084.4 45.3856 1088.43 46.8924 1091.58 49.6277C1092.32 49.4861 1093.05 49.2869 1093.75 49.0333C1090.12 45.4498 1085.33 43.4786 1080.25 43.4786C1079.18 43.4786 1078.11 43.5676 1077.07 43.7421C1077.49 44.3498 1077.97 44.9328 1078.49 45.4745C1079.08 45.4153 1079.67 45.3856 1080.25 45.3856Z" fill="white"/>
<path d="M1089.83 49.8534C1087.04 47.762 1083.73 46.6586 1080.25 46.6586C1080.1 46.6586 1079.95 46.6619 1079.79 46.6669C1082.35 48.7468 1085.56 49.8896 1088.86 49.8896C1089.17 49.8896 1089.49 49.8781 1089.83 49.8534Z" fill="white"/>
</g>
</g>
<defs>
<filter id="filter0_i_420_958" x="0" y="0" width="1182.05" height="71" filterUnits="userSpaceOnUse" color-interpolation-filters="sRGB">
<feFlood flood-opacity="0" result="BackgroundImageFix"/>
<feBlend mode="normal" in="SourceGraphic" in2="BackgroundImageFix" result="shape"/>
<feColorMatrix in="SourceAlpha" type="matrix" values="0 0 0 0 0 0 0 0 0 0 0 0 0 0 0 0 0 0 127 0" result="hardAlpha"/>
<feOffset dx="12"/>
<feComposite in2="hardAlpha" operator="arithmetic" k2="-1" k3="1"/>
<feColorMatrix type="matrix" values="0 0 0 0 0.678431 0 0 0 0 0.611765 0 0 0 0 0.439216 0 0 0 1 0"/>
<feBlend mode="normal" in2="shape" result="effect1_innerShadow_420_958"/>
</filter>
<clipPath id="clip0_420_958">
<rect width="88" height="37" fill="white" transform="translate(1070.05 17)"/>
</clipPath>
</defs>
</svg>
